<svg width="104" height="104" viewBox="0 0 104 104" fill="none" xmlns="http://www.w3.org/2000/svg">
<path d="M46.5594 102.057L98.1635 72.2632C103.226 69.3402 104.962 62.8644 102.039 57.8015L72.2342 6.17895C69.3112 1.11611 62.8354 -0.619076 57.7725 2.30396L6.16835 32.0976C1.10551 35.0207 -0.629685 41.4965 2.29335 46.5593L32.087 98.1635C35.0101 103.226 41.4859 104.962 46.5487 102.039L46.5594 102.057ZM56.7157 8.33904C60.545 6.12817 65.4527 7.44318 67.6636 11.2725C69.8745 15.1019 68.5595 20.0096 64.7301 22.2204C60.9007 24.4313 55.9931 23.1163 53.7822 19.287C51.5713 15.4576 52.8863 10.5499 56.7157 8.33904ZM70.5549 32.3093C74.3843 30.0984 79.2919 31.4134 81.5028 35.2428C83.7137 39.0721 82.3987 43.9798 78.5693 46.1907C74.74 48.4016 69.8323 47.0866 67.6214 43.2572C65.4105 39.4279 66.7256 34.5202 70.5549 32.3093ZM84.3941 56.2796C88.2235 54.0687 93.1312 55.3837 95.3421 59.2131C97.5529 63.0424 96.2379 67.9501 92.4086 70.161C88.5792 72.3718 83.6715 71.0568 81.4607 67.2275C79.2498 63.3981 80.5648 58.4904 84.3941 56.2796ZM34.3287 21.2642C38.1581 19.0533 43.0657 20.3683 45.2766 24.1977C47.4875 28.027 46.1725 32.9347 42.3431 35.1456C38.5138 37.3564 33.6061 36.0414 31.3952 32.2121C29.1843 28.3827 30.4993 23.475 34.3287 21.2642ZM62.0072 69.2047C65.8365 66.9938 70.7442 68.3088 72.9551 72.1382C75.166 75.9675 73.851 80.8752 70.0216 83.0861C66.1923 85.297 61.2846 83.982 59.0737 80.1526C56.8628 76.3233 58.1778 71.4156 62.0072 69.2047ZM12.3836 33.9342C16.2129 31.7233 21.1206 33.0383 23.3315 36.8677C25.5424 40.697 24.2274 45.6047 20.398 47.8156C16.5687 50.0265 11.661 48.7115 9.45009 44.8821C7.23922 41.0528 8.55423 36.1451 12.3836 33.9342ZM26.2228 57.9045C30.0522 55.6936 34.9598 57.0086 37.1707 60.8379C39.3816 64.6673 38.0666 69.575 34.2372 71.7858C30.4079 73.9967 25.5002 72.6817 23.2893 68.8524C21.0785 65.023 22.3935 60.1153 26.2228 57.9045ZM40.062 81.8747C43.8914 79.6638 48.7991 80.9788 51.01 84.8082C53.2208 88.6375 51.9058 93.5452 48.0765 95.7561C44.2471 97.967 39.3394 96.652 37.1286 92.8226C34.9177 88.9933 36.2327 84.0856 40.062 81.8747Z" fill="#EEFF01"/>
</svg>
