<svg width="38" height="177" viewBox="0 0 38 177" fill="none" xmlns="http://www.w3.org/2000/svg">
<path fill-rule="evenodd" clip-rule="evenodd" d="M18.9539 8.28458e-07L0.000976562 0C10.4233 4.55575e-07 18.8808 8.41239 18.9539 18.8175L18.9539 8.28458e-07ZM18.9547 8.28493e-07L37.9076 1.65695e-06C27.4852 1.20137e-06 19.0276 8.41254 18.9547 18.8178L18.9547 8.28493e-07Z" fill="white"/>
<path fill-rule="evenodd" clip-rule="evenodd" d="M3.24249e-05 26.2622C10.4559 26.2622 18.9343 34.7288 18.9534 45.1801L18.9534 26.2621L0 26.2621L0 26.2622L3.24249e-05 26.2622ZM37.9075 26.2622C27.4517 26.2622 18.9733 34.7288 18.9542 45.1801L18.9542 26.2621L37.9076 26.2621L37.9076 26.2622L37.9075 26.2622Z" fill="white"/>
<path fill-rule="evenodd" clip-rule="evenodd" d="M18.9539 52.6245L0.000976562 52.6245C10.4233 52.6245 18.8808 61.0369 18.9539 71.442L18.9539 52.6245ZM18.9547 52.6245L37.9076 52.6245C27.4852 52.6245 19.0276 61.0371 18.9547 71.4423L18.9547 52.6245Z" fill="white"/>
<path fill-rule="evenodd" clip-rule="evenodd" d="M0 78.8866L0 78.8868L3.24249e-05 78.8868C10.4559 78.8868 18.9343 87.3534 18.9534 97.8047L18.9534 78.8866L0 78.8866ZM37.9076 78.8866L37.9076 78.8868L37.9075 78.8868C27.4517 78.8868 18.9733 87.3534 18.9542 97.8047L18.9542 78.8866L37.9076 78.8866Z" fill="white"/>
<path fill-rule="evenodd" clip-rule="evenodd" d="M18.9539 105.249L0.000976562 105.249C10.4233 105.249 18.8808 113.661 18.9539 124.067L18.9539 105.249ZM18.9547 105.249L37.9076 105.249C27.4852 105.249 19.0276 113.662 18.9547 124.067L18.9547 105.249Z" fill="white"/>
<path fill-rule="evenodd" clip-rule="evenodd" d="M18.9539 131.511L0.000976562 131.511C10.4233 131.511 18.8808 139.924 18.9539 150.329L18.9539 131.511ZM18.9547 131.511L37.9076 131.511C27.4852 131.511 19.0276 139.924 18.9547 150.329L18.9547 131.511Z" fill="white"/>
<path fill-rule="evenodd" clip-rule="evenodd" d="M18.9539 157.773L0.000976562 157.773C10.4233 157.773 18.8808 166.186 18.9539 176.591L18.9539 157.773ZM18.9547 157.773L37.9076 157.773C27.4852 157.773 19.0276 166.186 18.9547 176.591L18.9547 157.773Z" fill="white"/>
</svg>
