<svg width="38" height="308" viewBox="0 0 38 308" fill="none" xmlns="http://www.w3.org/2000/svg">
<path fill-rule="evenodd" clip-rule="evenodd" d="M18.9537 307.902L37.9066 307.902C27.4843 307.902 19.0268 299.489 18.9537 289.084L18.9537 307.902ZM18.9529 307.902L1.52588e-05 307.902C10.4224 307.902 18.88 299.489 18.9529 289.084L18.9529 307.902Z" fill="white"/>
<path fill-rule="evenodd" clip-rule="evenodd" d="M37.9076 281.64C27.4517 281.64 18.9733 273.173 18.9542 262.722L18.9542 281.64L37.9076 281.64L37.9076 281.64L37.9076 281.64ZM4.57764e-05 281.64C10.4559 281.64 18.9343 273.173 18.9534 262.722L18.9534 281.64L1.52588e-05 281.64L1.52588e-05 281.64L4.57764e-05 281.64Z" fill="white"/>
<path fill-rule="evenodd" clip-rule="evenodd" d="M18.9537 255.277L37.9066 255.277C27.4843 255.277 19.0268 246.865 18.9537 236.46L18.9537 255.277ZM18.9529 255.277L1.14441e-05 255.277C10.4224 255.277 18.88 246.865 18.9529 236.459L18.9529 255.277Z" fill="white"/>
<path fill-rule="evenodd" clip-rule="evenodd" d="M37.9076 229.015L37.9076 229.015L37.9076 229.015C27.4517 229.015 18.9733 220.548 18.9542 210.097L18.9542 229.015L37.9076 229.015ZM1.14441e-05 229.015L1.14441e-05 229.015L4.19617e-05 229.015C10.4559 229.015 18.9343 220.548 18.9534 210.097L18.9534 229.015L1.14441e-05 229.015Z" fill="white"/>
<path fill-rule="evenodd" clip-rule="evenodd" d="M18.9537 202.653L37.9066 202.653C27.4843 202.653 19.0268 194.24 18.9537 183.835L18.9537 202.653ZM18.9529 202.653L1.14441e-05 202.653C10.4224 202.653 18.88 194.24 18.9529 183.835L18.9529 202.653Z" fill="white"/>
<path fill-rule="evenodd" clip-rule="evenodd" d="M18.9537 176.391L37.9066 176.391C27.4843 176.391 19.0268 167.978 18.9537 157.573L18.9537 176.391ZM18.9529 176.391L7.62939e-06 176.391C10.4224 176.391 18.88 167.978 18.9529 157.573L18.9529 176.391Z" fill="white"/>
<path fill-rule="evenodd" clip-rule="evenodd" d="M18.9537 150.128L37.9066 150.128C27.4843 150.128 19.0268 141.716 18.9537 131.311L18.9537 150.128ZM18.9529 150.128L7.62939e-06 150.128C10.4224 150.128 18.88 141.716 18.9529 131.311L18.9529 150.128Z" fill="white"/>
<path fill-rule="evenodd" clip-rule="evenodd" d="M18.9537 123.866L37.9066 123.866C27.4843 123.866 19.0268 115.454 18.9537 105.049L18.9537 123.866ZM18.9529 123.866L7.62939e-06 123.866C10.4224 123.866 18.88 115.454 18.9529 105.049L18.9529 123.866Z" fill="white"/>
<path fill-rule="evenodd" clip-rule="evenodd" d="M18.9537 97.6042L37.9066 97.6042C27.4843 97.6042 19.0268 89.1918 18.9537 78.7867L18.9537 97.6042ZM18.9529 97.6042L7.62939e-06 97.6042C10.4224 97.6042 18.88 89.1917 18.9529 78.7864L18.9529 97.6042Z" fill="white"/>
<path fill-rule="evenodd" clip-rule="evenodd" d="M18.9537 71.3421L37.9066 71.3421C27.4843 71.3421 19.0268 62.9297 18.9537 52.5246L18.9537 71.3421ZM18.9529 71.3421L3.81469e-06 71.3421C10.4224 71.3421 18.88 62.9295 18.9529 52.5243L18.9529 71.3421Z" fill="white"/>
<path fill-rule="evenodd" clip-rule="evenodd" d="M18.9537 45.0799L37.9066 45.0799C27.4843 45.0799 19.0268 36.6675 18.9537 26.2624L18.9537 45.0799ZM18.9529 45.08L3.8147e-06 45.08C10.4224 45.08 18.88 36.6674 18.9529 26.2622L18.9529 45.08Z" fill="white"/>
<path fill-rule="evenodd" clip-rule="evenodd" d="M18.9537 18.8179L37.9066 18.8179C27.4843 18.8179 19.0268 10.4055 18.9537 0.000357503L18.9537 18.8179ZM18.9529 18.8178L3.81469e-06 18.8178C10.4224 18.8178 18.88 10.4053 18.9529 2.94387e-05L18.9529 18.8178Z" fill="white"/>
</svg>
