<svg width="64" height="317" viewBox="0 0 64 317" fill="none" xmlns="http://www.w3.org/2000/svg">
<path d="M25.1199 95.1659L25.1199 83.0843C23.1352 83.009 21.3585 82.7832 19.7897 82.3692L19.7897 94.5825C21.4719 94.8648 23.2297 95.0718 25.1199 95.1659Z" fill="white"/>
<path d="M35.7803 57.171L35.7803 45.0142L30.4501 45.0142L30.4501 57.171L35.7803 57.171Z" fill="white"/>
<path d="M19.7708 58.0179C21.3396 57.585 23.1163 57.3216 25.101 57.2275L25.101 45.0706C23.2108 45.1271 21.4341 45.2965 19.7708 45.5599L19.7708 58.0179Z" fill="white"/>
<path d="M46.4596 133.387L46.4596 121.23L41.1294 121.23L41.1294 133.387L46.4596 133.387Z" fill="white"/>
<path d="M46.4596 57.171L46.4596 45.0142L41.1294 45.0142L41.1294 57.171L46.4596 57.171Z" fill="white"/>
<path d="M46.4596 95.2411L46.4596 83.1219L41.1294 83.1219L41.1294 95.2411L46.4596 95.2411Z" fill="white"/>
<path d="M25.1199 133.387L25.1199 121.23L19.7897 121.23L19.7897 133.387L25.1199 133.387Z" fill="white"/>
<path d="M46.4596 171.588L46.4596 159.432L41.1294 159.432L41.1294 171.588L46.4596 171.588Z" fill="white"/>
<path d="M46.4595 253.92C46.1571 253.939 45.8735 253.995 45.5522 253.995C43.9267 253.995 42.4524 253.638 41.1293 252.998L41.1293 265.813C42.7926 266.378 44.5693 266.679 46.4595 266.717L46.4595 253.901L46.4595 253.92Z" fill="white"/>
<path d="M57.1199 209.658L57.1199 197.539L51.7897 197.539L51.7897 209.658L57.1199 209.658Z" fill="white"/>
<path d="M35.7803 246.054C35.5913 245.15 35.4589 244.191 35.4589 243.137L35.4589 235.91L35.7803 235.91L35.7803 223.791L30.4501 223.791L30.4501 255.011C31.6976 258.211 33.4743 260.808 35.7803 262.765L35.7803 246.054Z" fill="white"/>
<path d="M25.1199 171.645L25.1199 159.488C23.2297 159.544 21.453 159.714 19.7897 159.977L19.7897 172.435C21.3585 172.002 23.1352 171.739 25.1199 171.645V171.645Z" fill="white"/>
<path d="M25.1199 209.583L25.1199 197.502C23.1352 197.426 21.3585 197.201 19.7897 196.787L19.7897 209C21.4719 209.282 23.2297 209.489 25.1199 209.583Z" fill="white"/>
<path d="M25.1199 235.91L25.1199 223.791L19.7897 223.791L19.7897 235.91L25.1199 235.91Z" fill="white"/>
<path d="M24.3449 244.925C23.5321 246.035 22.0011 247.315 19.7708 248.782L19.7708 262.238C21.8877 260.902 23.6644 259.622 25.101 258.38L25.101 243.683C24.893 244.115 24.6473 244.529 24.3449 244.943L24.3449 244.925Z" fill="white"/>
<path d="M14.4407 280.755L9.11049 280.755L9.11049 317L11.1896 317L11.1896 292.875L14.4407 292.875L14.4407 280.755Z" fill="white"/>
<path d="M14.4407 194.227C11.8701 192.082 10.5848 188.92 10.5848 184.705C10.5848 180.49 11.8701 177.29 14.4407 175.107L14.4407 161.238C12.456 161.897 10.6793 162.762 9.11049 163.797L9.11049 204.954C10.6793 206.045 12.4749 206.911 14.4407 207.626L14.4407 194.208L14.4407 194.227Z" fill="white"/>
<path d="M14.4407 79.791C11.8701 77.6457 10.5848 74.4842 10.5848 70.2688C10.5848 66.0534 11.8701 62.8543 14.4407 60.6713L14.4407 46.802C12.456 47.4606 10.6793 48.3263 9.11049 49.3613L9.11049 90.5177C10.6793 91.6091 12.4749 92.4748 14.4407 93.1899L14.4407 79.7722L14.4407 79.791Z" fill="white"/>
<path d="M51.7897 223.791L51.7897 235.91L54.5115 235.91L54.5115 243.363C54.5115 247.239 53.5853 250.024 51.7897 251.775L51.7897 266.227C53.8121 265.757 55.6078 264.985 57.1199 263.856L57.1199 223.791L51.7897 223.791V223.791Z" fill="white"/>
<path d="M57.1199 280.755L51.7897 280.755L51.7897 292.875L53.8688 292.875L53.8688 315.589L57.1199 315.589L57.1199 280.755Z" fill="white"/>
<path d="M64 315.589L64 280.755L62.469 280.755L62.469 315.589L64 315.589Z" fill="white"/>
<path d="M35.7803 171.588L35.7803 159.432L30.4501 159.432L30.4501 171.588L35.7803 171.588Z" fill="white"/>
<path d="M35.7803 133.387L35.7803 121.23L30.4501 121.23L30.4501 133.387L35.7803 133.387Z" fill="white"/>
<path d="M35.7803 209.658L35.7803 197.539L30.4501 197.539L30.4501 209.658L35.7803 209.658Z" fill="white"/>
<path d="M35.7803 95.2411L35.7803 83.1219L30.4501 83.1219L30.4501 95.2411L35.7803 95.2411Z" fill="white"/>
<path d="M57.1199 171.588L57.1199 159.432L51.7897 159.432L51.7897 171.588L57.1199 171.588Z" fill="white"/>
<path d="M46.4595 235.91L46.4595 223.791L41.1293 223.791L41.1293 235.91L46.4595 235.91Z" fill="white"/>
<path d="M46.4595 209.658L46.4595 197.539L41.1293 197.539L41.1293 209.658L46.4595 209.658Z" fill="white"/>
<path d="M64 57.171L64 45.0142L62.469 45.0142L62.469 57.171L64 57.171Z" fill="white"/>
<path d="M64 95.2412L64 83.1219L62.469 83.1219L62.469 95.2412L64 95.2412Z" fill="white"/>
<path d="M3.78027 12.1192L3.78027 0L1.11518 -1.16495e-07L1.11518 12.1192L3.78027 12.1192Z" fill="white"/>
<path d="M64 151.302L64 103.371L62.469 103.371L62.469 151.302L64 151.302Z" fill="white"/>
<path d="M64 34.8898L64 0L62.469 -6.69226e-08L62.469 34.8898L64 34.8898Z" fill="white"/>
<path d="M62.469 256.103C63.4897 253.073 64 249.403 64 245.056L64 223.791L62.469 223.791L62.469 256.103Z" fill="white"/>
<path d="M64 209.659L64 197.539L62.469 197.539L62.469 209.659L64 209.659Z" fill="white"/>
<path d="M64 171.588L64 159.432L62.469 159.432L62.469 171.588L64 171.588Z" fill="white"/>
<path d="M3.78027 54.6682C1.26639 58.5072 1.28314e-06 63.4941 1.01497e-06 69.629C7.46808e-07 75.7638 1.26639 81.0331 3.78027 85.0038L3.78027 54.6682Z" fill="white"/>
<path d="M3.78027 235.91L3.78027 223.791L1.11518 223.791L1.11518 235.91L3.78027 235.91Z" fill="white"/>
<path d="M3.78027 317L3.78027 280.755L1.11518 280.755L1.11518 317L3.78027 317Z" fill="white"/>
<path d="M3.78027 258.436L1.11518 260.036L1.11518 274.075L3.78027 272.381L3.78027 258.436Z" fill="white"/>
<path d="M3.78027 133.387L3.78027 121.23L1.11518 121.23L1.11518 133.387L3.78027 133.387Z" fill="white"/>
<path d="M3.78027 169.104C1.26639 172.943 1.28314e-06 177.93 1.01497e-06 184.065C7.46808e-07 190.2 1.26639 195.469 3.78027 199.44L3.78027 169.104Z" fill="white"/>
<path d="M51.7897 -2.3299e-07L51.7897 12.1192L53.8688 12.1192L53.8688 34.8898L57.1199 34.8898L57.1199 0L51.7897 -2.3299e-07Z" fill="white"/>
<path d="M46.4596 12.1192L46.4596 0L41.1294 -2.3299e-07L41.1294 12.1192L46.4596 12.1192Z" fill="white"/>
<path d="M35.7803 33.102L35.7803 0L30.4501 -2.3299e-07L30.4501 33.102L35.7803 33.102Z" fill="white"/>
<path d="M53.8688 103.371L53.8688 121.23L51.7897 121.23L51.7897 133.405L53.8688 133.405L53.8688 151.302L57.1199 151.302L57.1199 103.371L53.8688 103.371Z" fill="white"/>
<path d="M25.1199 12.1192L25.1199 0L19.7897 -2.3299e-07L19.7897 12.1192L25.1199 12.1192Z" fill="white"/>
<path d="M57.1199 57.171L57.1199 45.0142L51.7897 45.0142L51.7897 57.171L57.1199 57.171Z" fill="white"/>
<path d="M57.1199 95.2411L57.1199 83.1219L51.7897 83.1219L51.7897 95.2411L57.1199 95.2411Z" fill="white"/>
<path d="M14.4407 235.91L14.4407 223.791L9.11049 223.791L9.11049 235.91L14.4407 235.91Z" fill="white"/>
<path d="M25.1199 292.875L25.1199 280.755L19.7897 280.755L19.7897 292.875L25.1199 292.875Z" fill="white"/>
<path d="M35.7803 313.97L35.7803 280.755L30.4501 280.755L30.4501 313.97L35.7803 313.97Z" fill="white"/>
<path d="M14.4407 265.625L14.4407 252.038L9.11049 255.237L9.11049 269.012L14.4407 265.625Z" fill="white"/>
<path d="M46.4595 292.875L46.4595 280.755L41.1293 280.755L41.1293 292.875L46.4595 292.875Z" fill="white"/>
<path d="M14.4407 12.1192L14.4407 0L9.11049 -2.3299e-07L9.11049 12.1192L14.4407 12.1192Z" fill="white"/>
<path d="M14.4407 133.387L14.4407 121.23L9.11049 121.23L9.11049 133.387L14.4407 133.387Z" fill="white"/>
</svg>
