<svg width="332" height="46" viewBox="0 0 332 46" fill="none" xmlns="http://www.w3.org/2000/svg">
<path d="M3.376 27.128V30.296H41.008V27.128H3.376ZM20.032 22.136V44.792H23.632V22.136H20.032ZM19.216 28.424C15.424 33.896 7.84 38.408 0.0640001 40.328C0.88 41.096 1.888 42.44 2.416 43.4C10.288 41 17.968 35.96 22.144 29.624L19.216 28.424ZM24.688 28.712L21.856 29.912C26.08 36.008 33.664 41.144 41.152 43.592C41.728 42.584 42.832 41.144 43.696 40.376C36.208 38.408 28.576 33.896 24.688 28.712ZM2.032 17.72V25.496H5.488V20.888H38.512V25.496H42.112V17.72H2.032ZM18.448 3.224C17.632 4.76 16.096 7.112 14.896 8.552L17.104 9.608C18.4 8.264 19.984 6.296 21.472 4.376L18.448 3.224ZM9.904 10.856C12.496 12.536 15.904 14.984 17.584 16.472L20.032 14.216C18.208 12.776 14.752 10.472 12.208 8.84L9.904 10.856ZM10.576 0.679998C10.24 9.032 8.8 12.824 0.304 14.984C0.928 15.56 1.84 16.808 2.128 17.624C11.536 15.032 13.408 10.28 13.84 0.679998H10.576ZM5.104 3.32C4.384 5.528 2.944 7.88 0.976 9.224L3.232 10.664C5.44 9.128 6.736 6.584 7.552 4.136L5.104 3.32ZM39.472 3.128C38.56 4.76 36.784 7.208 35.44 8.744L37.696 9.8C39.136 8.408 41.008 6.344 42.592 4.328L39.472 3.128ZM30.016 10.52C33.424 12.728 37.984 15.896 40.288 17.768L42.592 15.32C40.24 13.496 35.584 10.52 32.272 8.456L30.016 10.52ZM30.64 0.679998C30.256 8.552 28.864 12.344 20.848 14.504C21.52 15.128 22.384 16.328 22.72 17.144C31.648 14.504 33.52 9.8 33.904 0.679998H30.64ZM25.024 3.128C24.4 5.432 22.96 7.784 20.848 9.032L23.152 10.52C25.504 9.032 26.704 6.488 27.52 3.944L25.024 3.128ZM55.36 1.592V19.496H58.48V1.592H55.36ZM47.872 17.672V21.08H66.544V17.672H47.872ZM67.504 8.168V10.712H76.048V8.168H67.504ZM56.848 36.872L57.904 40.184C60.736 38.888 63.952 37.352 67.12 35.864L66.496 32.984C62.896 34.472 59.344 35.96 56.848 36.872ZM52 19.448C51.904 29.72 51.424 37.736 47.584 42.344C48.4 42.872 49.456 43.976 49.936 44.792C54.352 39.56 54.976 30.728 55.12 19.448H52ZM48.448 5.096C49.696 8.6 50.656 13.16 50.848 16.088L53.584 15.464C53.344 12.536 52.336 7.976 50.992 4.52L48.448 5.096ZM62.944 4.28C62.224 7.64 60.832 12.536 59.68 15.512L62.08 16.28C63.328 13.4 64.816 8.792 65.968 5.096L62.944 4.28ZM70.72 28.088V30.68H90.304V28.088H70.72ZM70.72 34.184V36.728H90.304V34.184H70.72ZM70.336 40.28V42.968H92.128V40.28H70.336ZM80.848 17.48C80.272 19.16 79.072 21.704 78.16 23.336L80.848 24.104C81.856 22.616 83.104 20.408 84.256 18.296L80.848 17.48ZM78.448 23.672V41.864H81.568V23.672H78.448ZM72.256 22.088H71.92L69.04 25.112V44.792H72.256V24.776H91.072V22.088H72.256ZM80.368 8.168V10.712H89.344V8.168H80.368ZM58.576 19.352V37.688L61.744 36.584V19.352H58.576ZM66.976 2.072V4.712H74.8V14.36H66.736V17H77.824V2.072H66.976ZM79.792 2.072V4.712H88V14.36H79.696V17H91.024V2.072H79.792ZM71.632 17.24C70 21.368 67.216 25.448 64.192 28.184C64.864 28.712 65.968 30.008 66.448 30.584C69.664 27.56 72.688 22.808 74.656 18.056L71.632 17.24ZM125.536 21.464V44.696H128.848V21.464H125.536ZM104.464 24.392V39.8H107.536V24.392H104.464ZM98.128 28.424V40.808H101.008V28.424H98.128ZM117.328 26.36V41.096H120.448V29.24H135.376V26.36H117.328ZM118.192 2.456V5.144H132.688V13.736H118.048V16.424H136.048V2.456H118.192ZM99.712 4.712V7.4H110.368V11.24H99.712V13.928H113.392V4.712H99.712ZM114.784 8.072V10.76H140.08V8.072H114.784ZM105.952 29.96V32.936H114.112V29.96H105.952ZM134.176 26.36V37.544C134.176 37.976 134.08 38.072 133.6 38.072C133.168 38.12 131.92 38.12 130.336 38.072C130.72 38.888 131.104 39.944 131.248 40.808C133.6 40.808 135.136 40.76 136.144 40.328C137.152 39.8 137.392 39.032 137.392 37.544V26.36H134.176ZM115.696 18.872V25.496H118.672V21.656H135.952V25.496H139.072V18.872H115.696ZM103.6 0.679998C103.36 2.024 102.736 4.04 102.304 5.48L105.184 6.104C105.808 4.808 106.528 3.032 107.248 1.256L103.6 0.679998ZM98.272 4.712V24.584H101.392V4.712H98.272ZM95.776 39.848L96.304 43.16C101.344 42.296 108.352 41.048 115.024 39.848L114.832 36.68C107.824 37.928 100.576 39.128 95.776 39.848ZM98.272 23V25.736H113.584V16.328H99.808V19.064H110.512V23H98.272ZM144.112 8.552V11.912H164.56V8.552H144.112ZM151.216 18.536V21.848H159.904V18.536H151.216ZM152.608 0.775997V9.752H156.16V0.775997H152.608ZM175.36 4.856C177.616 10.952 181.84 17.576 186.688 21.512C187.168 20.408 187.936 18.968 188.608 18.008C184 14.696 179.584 7.784 177.088 0.727998H173.392C171.52 7.256 167.344 14.504 162.544 18.296C163.168 19.16 163.984 20.6 164.368 21.56C169.264 17.576 173.392 10.712 175.36 4.856ZM149.344 10.52C149.248 23.384 148.864 35.72 143.392 42.488C144.304 43.112 145.552 44.216 146.128 45.032C152.08 37.496 152.656 24.44 152.896 10.52H149.344ZM158.8 18.536V19.256C158.512 34.568 158.128 39.848 157.264 41C156.88 41.528 156.496 41.672 155.776 41.624C155.008 41.624 153.232 41.624 151.216 41.48C151.792 42.392 152.128 43.784 152.224 44.744C154.24 44.888 156.256 44.888 157.408 44.792C158.704 44.6 159.52 44.264 160.288 43.208C161.536 41.528 161.824 36.152 162.16 20.216C162.208 19.688 162.208 18.536 162.208 18.536H158.8ZM170.176 21.464C173.44 23.576 177.232 26.696 179.008 28.952L181.504 26.408C179.68 24.2 175.792 21.224 172.528 19.208L170.176 21.464ZM166.288 34.472C172.144 37.208 179.152 41.624 182.56 44.888L184.864 41.72C181.408 38.504 174.256 34.28 168.448 31.736L166.288 34.472ZM198.544 27.992V31.064H231.328V27.992H198.544ZM200.416 21.176V24.152H235.552V21.176H200.416ZM230.272 27.992V28.52C229.792 37.304 229.264 40.568 228.4 41.432C228.112 41.864 227.632 41.912 226.816 41.912C226 41.912 223.936 41.912 221.632 41.672C222.16 42.536 222.496 43.832 222.592 44.792C224.944 44.888 227.2 44.936 228.4 44.792C229.696 44.696 230.608 44.408 231.376 43.544C232.576 42.2 233.152 38.696 233.68 29.48C233.728 29 233.776 27.992 233.776 27.992H230.272ZM212.224 0.535997C211.792 2.12 210.928 4.472 210.16 6.152L213.28 6.776C214.192 5.336 215.392 3.176 216.352 1.112L212.224 0.535997ZM200.512 5.24V8.12H225.04V14.648H200.512V17.576H228.544V5.24H200.512ZM198.544 5.24V29.72H202.144V5.24H198.544ZM211.552 33.992C212.656 36.536 213.712 39.944 214 42.056L216.88 41.192C216.64 39.128 215.536 35.816 214.288 33.32L211.552 33.992ZM219.184 33.368C220.624 35.336 222.112 37.976 222.736 39.752L225.376 38.6C224.752 36.92 223.168 34.328 221.68 32.408L219.184 33.368ZM203.728 34.088C204.496 36.92 204.928 40.568 204.832 42.92L207.952 42.44C207.952 40.088 207.472 36.44 206.656 33.656L203.728 34.088ZM197.2 32.744C196.384 36.488 194.752 40.28 191.968 42.488L194.896 44.36C197.872 41.912 199.36 37.688 200.224 33.752L197.2 32.744ZM250.144 17.432H273.904V25.16H250.144V17.432ZM246.64 14.216V28.376H277.6V14.216H246.64ZM241.312 5.48V8.84H282.832V5.48H241.312ZM260.032 0.679998V15.656H263.68V0.679998H260.032ZM265.168 26.408V39.32C265.168 43.256 266.368 44.408 270.88 44.408C271.792 44.408 277.504 44.408 278.464 44.408C282.544 44.408 283.6 42.584 284.032 35.336C283.024 35.096 281.44 34.52 280.624 33.848C280.432 40.04 280.144 40.952 278.176 40.952C276.88 40.952 272.224 40.952 271.216 40.952C269.2 40.952 268.816 40.712 268.816 39.272V26.408H265.168ZM254.224 27.656C253.36 34.856 251.056 39.416 240.064 41.672C240.832 42.44 241.84 43.976 242.176 44.936C254.176 42.056 257.056 36.44 258.064 27.656H254.224ZM298.672 23.528V25.736H320.992V23.528H298.672ZM308.272 21.416V44.552H311.248V21.416H308.272ZM302.176 32.984H317.44V35.048H302.176V32.984ZM302.176 29.24H317.44V31.208H302.176V29.24ZM299.536 27.416V36.92H320.128V27.416H299.536ZM308.08 35.864C305.68 38.216 300.976 40.52 296.848 41.528C297.472 42.056 298.288 43.064 298.72 43.784C302.848 42.44 307.696 39.656 310.24 36.776L308.08 35.864ZM311.824 36.2L309.712 37.064C312.016 39.704 316.336 42.44 320.08 43.688C320.512 42.968 321.376 42.008 322 41.48C318.304 40.52 313.984 38.36 311.824 36.2ZM288.784 3.848V6.776H331.216V3.848H288.784ZM300.112 0.727998V9.128H303.616V0.727998H300.112ZM316.144 0.727998V9.128H319.696V0.727998H316.144ZM292.96 14.6V16.664H305.488V14.6H292.96ZM314.272 14.6V16.664H326.944V14.6H314.272ZM293.2 9.848V12.152H304.912V19.208H293.2V21.56H308.176V9.848H293.2ZM326.992 9.848H311.728V21.56H326.992V19.208H315.04V12.2H326.992V9.848ZM290.8 9.848V44.888H294.16V9.848H290.8ZM326.128 9.848V41C326.128 41.576 325.936 41.72 325.312 41.768C324.784 41.816 323.056 41.816 321.184 41.768C321.616 42.584 322.096 44.024 322.288 44.888C325.024 44.888 326.848 44.792 327.952 44.312C329.152 43.736 329.536 42.776 329.536 41.048V9.848H326.128Z" fill="white"/>
</svg>
